<svg width="201" height="65" viewBox="0 0 201 65" fill="none" xmlns="http://www.w3.org/2000/svg">
<path fill-rule="evenodd" clip-rule="evenodd" d="M38.3998 0.60036C35.5436 0.60036 33.8284 2.77635 33.8284 5.78799V29.2457C33.8284 32.2601 35.5436 34.4287 38.3998 34.4287C41.2578 34.4287 42.9712 32.2601 42.9712 29.2457V5.78799C42.9712 2.77543 41.2578 0.60036 38.3998 0.60036ZM59.1594 9.94065H57.1023V8.58568C57.1023 7.16855 57.9251 6.58707 60.2447 6.82112C62.5651 7.05884 63.0853 5.55302 63.0853 4.32879C63.0853 3.3816 62.8586 2.86046 62.0906 2.08972C60.5491 0.553733 56.6433 0.604019 56.6433 0.604019C56.6433 0.604019 53.1297 0.43579 50.7206 2.32744C48.3151 4.21908 48.4861 7.55163 48.4861 7.55163V9.94065H48.1204C46.514 9.94065 44.7997 10.8897 44.7997 12.8993C44.7997 14.9088 46.7517 15.856 48.3151 15.856H48.4861L48.4852 29.8592C48.4852 32.2665 49.9627 34.4287 52.935 34.4287C55.9064 34.4287 57.1023 32.3103 57.1023 29.9661V15.856H59.1594C60.3297 15.856 62.63 15.2956 62.63 12.9943C62.63 10.6949 60.8316 9.94065 59.1594 9.94065ZM71.0368 21.7257C71.0368 16.1797 73.7934 15.2115 75.6421 15.2115C75.9794 15.2115 76.2811 15.2691 76.5838 15.3212C78.3474 15.707 79.6969 17.3417 79.6969 21.9616C79.6969 26.3959 78.3529 27.7444 76.7648 28.0937C76.4113 28.1735 76.0502 28.2152 75.6878 28.218C73.5758 28.218 71.0368 27.2708 71.0368 21.7257ZM84.1897 8.82888C82.7195 8.82888 81.5666 9.43597 80.7931 10.4334C79.1906 9.37599 77.3105 8.81758 75.3906 8.82888C66.2012 8.82888 62.1711 15.6074 62.1711 22.0576C62.1711 29.0546 67.0524 34.4287 75.4007 34.4287C77.3691 34.4287 79.2151 33.754 80.7511 32.7629C81.5245 33.7979 82.6893 34.4287 84.1888 34.4287C86.9992 34.4287 88.6852 32.2582 88.6852 29.2512V14.0064C88.6852 10.9985 86.9992 8.82888 84.1897 8.82888ZM12.7021 20.6304L15.999 9.85836L19.3005 20.6304H12.7021ZM30.601 27.7216C30.1264 26.3319 22.6879 5.0465 22.2993 4.04902C21.9098 3.05246 21.5459 2.31006 20.6746 1.65727C19.1853 0.548245 15.9999 0.60036 15.9999 0.60036C15.9999 0.60036 12.8164 0.548245 11.3279 1.65727C10.453 2.31006 10.0882 3.05246 9.70051 4.04902C9.3156 5.04559 1.87427 26.3319 1.39885 27.7216C0.925252 29.1094 0.602511 30.7314 1.39885 32.058C2.19793 33.3773 3.61141 34.4287 5.45094 34.4287C7.29504 34.4287 8.96543 33.6388 9.65845 31.3631C10.3478 29.0857 10.6934 27.9593 10.6934 27.9593H21.3091C21.3091 27.9593 21.6529 29.0857 22.3423 31.3631C23.0335 33.6397 24.7038 34.4287 26.548 34.4287C28.3893 34.4287 29.8028 33.3773 30.601 32.058C31.3982 30.7323 31.0764 29.1094 30.601 27.7216ZM188.685 60.44H0V64.6H188.685C194.493 64.6 199.31 60.248 200.227 54.5429C197.576 58.125 193.387 60.44 188.685 60.44ZM126.215 8.82888C121.465 8.82888 116.815 15.1374 115.183 17.5977C115.268 16.9797 115.41 16.1751 115.646 15.1978C116.03 13.5658 116.265 11.3377 115.184 9.98636C114.567 9.21836 113.604 8.82888 112.321 8.82888C107.922 8.82888 103.581 14.3959 101.722 17.1104C101.951 16.2848 102.209 15.3312 102.369 14.6903C102.686 13.4259 103.222 11.3066 102.326 10.1006C101.805 9.39573 100.899 9.03734 99.6291 9.03734C97.5747 9.03734 95.2662 9.97265 95.1693 10.0138L94.6637 10.2003L95.1162 10.4609C95.1199 10.4654 95.7452 11.0378 95.2625 14.3923C94.4287 20.187 92.4867 27.1328 91.6877 29.8473C91.2653 31.3046 91.3585 32.4475 91.9638 33.2475C92.5453 34.0082 93.6077 34.4287 94.9581 34.4287C96.8982 34.4287 98.617 33.7576 98.6883 33.7275L98.99 33.6095L98.8072 33.3416C98.7962 33.3288 97.8207 31.8669 99.0833 29.0875C103.481 19.4144 107.021 15.5635 108.014 14.8933C108.215 14.7562 108.406 14.6812 108.547 14.6812C108.65 14.6812 108.698 14.7223 108.727 14.7507C108.812 14.8458 108.844 15.0405 108.82 15.2819C108.446 18.6208 107.028 24.3058 106.096 28.0681C105.895 28.8681 105.717 29.5766 105.584 30.1371C105.23 31.6073 105.347 32.7181 105.924 33.4404C106.45 34.0959 107.347 34.4287 108.598 34.4287C110.568 34.4287 112.315 33.7339 112.389 33.701L112.712 33.5675L112.494 33.3023C112.483 33.2877 111.525 32.058 112.841 29.0628C116.124 21.563 120.516 15.7637 121.661 14.9418C122.034 14.673 122.24 14.6309 122.333 14.6309C122.397 14.6309 122.44 14.6492 122.473 14.694C122.588 14.8284 122.618 15.1658 122.55 15.5168C122.518 15.6695 122.413 16.1468 122.261 16.8398C121.7 19.3961 120.531 24.7154 119.87 28.3799C119.468 30.6144 119.697 32.2564 120.549 33.2648C121.205 34.0365 122.212 34.4287 123.539 34.4287C125.724 34.4287 127.823 33.0655 127.91 33.0052L128.184 32.8233L127.94 32.602C127.924 32.5901 126.344 31.1026 127.133 26.7625C127.657 23.8679 128.37 20.5225 128.889 18.0796C129.147 16.8526 129.353 15.8835 129.46 15.334L129.511 15.0707C129.769 13.7724 130.249 11.3587 129.055 9.92693C128.45 9.19734 127.492 8.82888 126.215 8.82888ZM140.458 29.5456C139.795 29.5456 139.451 28.4082 139.451 27.2873C139.451 26.0219 140.108 18.8147 143.247 15.121C143.926 14.3191 144.706 13.9123 145.564 13.9123C147.531 13.9123 149.413 15.9968 149.861 16.5271C147.448 21.3509 144.084 26.3995 141.647 28.8452C141.193 29.3051 140.782 29.5456 140.458 29.5456ZM154.418 10.0165C153.045 10.0165 151.968 10.3731 151.216 11.0798C150.64 10.7288 148.802 9.74316 146.309 9.74316C144.96 9.74316 142.871 10.0394 140.557 11.4529C138.027 13.0044 135.851 15.5114 134.087 18.9189C130.102 26.6116 131.993 32.2079 132.964 33.5629C133.83 34.7597 135.092 35.343 136.823 35.343C139.237 35.343 142.62 34.3263 147.596 26.6199C147.459 27.6722 147.29 29.2228 147.29 30.5092C147.29 34.735 150.287 35.1922 151.574 35.1922C154.768 35.1922 155.88 33.7394 155.922 33.679L156.05 33.4962L155.89 33.3435C155.875 33.3252 154.394 31.7993 155.353 23.9721C156.264 16.5116 158.931 11.3514 158.956 11.2984L159.085 11.0533L158.828 10.9473C158.736 10.908 156.592 10.0165 154.418 10.0165ZM178.862 8.82888C175.386 8.82888 171.267 14.5495 169.53 17.2183C169.805 16.0462 170.188 14.3584 170.51 12.8206C170.765 11.6449 170.635 10.7324 170.125 10.1052C169.581 9.43414 168.641 9.10682 167.257 9.10682C165.315 9.10682 162.927 9.94888 162.827 9.98453L162.479 10.1125L162.724 10.3978C162.732 10.4042 163.46 11.3002 162.995 14.5166C162.489 17.9918 160.305 26.6391 159.325 30.1033C158.938 31.482 159.017 32.5508 159.574 33.2831C160.351 34.3108 161.851 34.4287 162.914 34.4287C164.687 34.4287 166.492 33.7576 166.568 33.7339L166.865 33.6159L166.69 33.349C166.682 33.3353 165.839 31.9885 166.827 29.4569C169.442 22.7634 172.388 18.8851 174.119 17.5968C174.546 17.2796 174.958 17.1159 175.351 17.1159C176.328 17.1159 176.905 18.1399 176.912 18.1472L177.072 18.4398L177.315 18.2085C178.241 17.3171 179.854 15.3559 180.496 13.6051C180.875 12.5738 181.395 10.6849 180.645 9.61151C180.283 9.09037 179.683 8.82888 178.862 8.82888ZM199.857 12.4028C198.851 12.7667 196.383 12.9733 193.085 12.9733C192.71 12.9733 192.401 12.9706 192.189 12.966C192.383 12.1358 192.942 9.77699 193.585 7.59917C194.006 6.17564 193.939 5.08765 193.389 4.37542C192.852 3.67874 191.886 3.3432 190.435 3.3432C188.472 3.3432 185.55 4.27577 185.429 4.31508L185.008 4.45039L185.327 4.75028C186.49 5.86204 185.311 11.2069 184.758 13.179C184.73 13.2869 181.942 23.8962 181.942 28.9842C181.942 33.2027 184.259 35.343 188.835 35.343C190.98 35.343 194.023 34.7176 196.135 32.9567C197.048 32.1897 197.421 31.1529 197.217 29.9542C197.119 29.4012 196.921 28.8707 196.632 28.389L196.464 28.1238L196.229 28.3341C196.217 28.3442 195.23 29.2064 193.384 29.8491C192.674 30.0905 192.085 30.2102 191.582 30.2102C190.931 30.2102 190.434 30.0146 189.973 29.5739C188.875 28.5289 189.585 24.7392 189.817 23.4976C190.168 21.6279 191.004 18.0174 191.21 17.1379C191.539 17.1315 192.238 17.1159 193.135 17.1159C193.818 17.1159 194.49 17.1241 195.134 17.1379C199.045 17.232 200.164 14.2332 200.213 12.6551L200.227 12.2657L199.857 12.4028Z" fill="#F0E8F7"/>
<path fill-rule="evenodd" clip-rule="evenodd" d="M200.227 45.8234V42.6572H11.6918C5.23608 42.6572 0 47.7873 0 54.1177V57.2857H188.534C194.993 57.2857 200.227 52.152 200.227 45.8234Z" fill="#F0E8F7"/>
</svg>
