<svg width="11" height="18" viewBox="0 0 11 18" fill="none" xmlns="http://www.w3.org/2000/svg">
<path d="M7.76786 4.66463C7.76786 4.64079 7.89048 4.56245 8.28216 4.56245H9.56279C9.66278 4.56381 9.76204 4.54523 9.85477 4.5078C9.9475 4.47037 10.0318 4.41483 10.1029 4.34444C10.1739 4.27404 10.2302 4.1902 10.2685 4.09781C10.3067 4.00542 10.3262 3.90633 10.3257 3.80633V1.57203C10.3275 1.47245 10.3096 1.3735 10.2731 1.28085C10.2365 1.1882 10.182 1.10369 10.1127 1.03216C10.0434 0.960637 9.96066 0.903509 9.86921 0.864061C9.77776 0.824613 9.67941 0.803622 9.57982 0.802292H7.67249C7.14318 0.78415 6.6157 0.873827 6.12211 1.06587C5.62853 1.25792 5.17915 1.54833 4.80129 1.91944C4.43531 2.31423 4.15093 2.77742 3.96448 3.28242C3.77803 3.78742 3.69317 4.32429 3.71479 4.86217V6.88871H2.23321C2.13346 6.88826 2.03461 6.90746 1.94229 6.94522C1.84997 6.98298 1.76599 7.03855 1.69514 7.10876C1.6243 7.17897 1.56797 7.26245 1.52939 7.35443C1.49081 7.44641 1.47072 7.54509 1.47028 7.64483V10.0528C1.47028 10.2525 1.54958 10.4439 1.69074 10.5851C1.8319 10.7262 2.02336 10.8055 2.22299 10.8055H3.68073V16.0337C3.678 16.2336 3.75459 16.4265 3.89374 16.5701C4.0329 16.7138 4.22328 16.7964 4.42323 16.8H6.92659C7.02573 16.8 7.12389 16.7804 7.21543 16.7424C7.30698 16.7043 7.39011 16.6486 7.46005 16.5783C7.52999 16.5081 7.58536 16.4247 7.62299 16.333C7.66062 16.2413 7.67976 16.143 7.67931 16.0439V10.8226H9.46061C9.66087 10.8217 9.85268 10.7417 9.99428 10.6001C10.1359 10.4585 10.2158 10.2667 10.2167 10.0665V7.65505C10.2167 7.55591 10.1972 7.45775 10.1591 7.36621C10.1211 7.27466 10.0653 7.19153 9.99507 7.12159C9.92481 7.05165 9.84143 6.99628 9.74971 6.95865C9.65799 6.92102 9.55975 6.90188 9.46061 6.90233H7.68952V5.12784C7.67054 4.96911 7.69774 4.80828 7.76786 4.66463Z" stroke="#0B0212" stroke-width="1.02178" stroke-linecap="round"/>
</svg>
