<svg width="18" height="18" viewBox="0 0 18 18" fill="none" xmlns="http://www.w3.org/2000/svg">
<path d="M12.2271 0.799999H5.76305C3.31246 0.799999 1.32587 2.78659 1.32587 5.23719V12.3628C1.32587 14.8134 3.31246 16.8 5.76305 16.8H12.2271C14.6777 16.8 16.6643 14.8134 16.6643 12.3628V5.23719C16.6643 2.78659 14.6777 0.799999 12.2271 0.799999Z" stroke="#0B0212" stroke-width="1.26416" stroke-linecap="round"/>
<path d="M8.99505 12.7083C11.1547 12.7083 12.9055 10.9576 12.9055 8.79789C12.9055 6.63821 11.1547 4.88744 8.99505 4.88744C6.83537 4.88744 5.08459 6.63821 5.08459 8.79789C5.08459 10.9576 6.83537 12.7083 8.99505 12.7083Z" stroke="#0B0212" stroke-width="1.26416" stroke-linecap="round"/>
<path d="M13.6767 4.18793C13.9838 4.18793 14.2329 3.9389 14.2329 3.63171C14.2329 3.32451 13.9838 3.07548 13.6767 3.07548C13.3695 3.07548 13.1204 3.32451 13.1204 3.63171C13.1204 3.9389 13.3695 4.18793 13.6767 4.18793Z" stroke="#0B0212" stroke-width="1.26416"/>
</svg>
