<svg width="286" height="65" viewBox="0 0 286 65" fill="none" xmlns="http://www.w3.org/2000/svg">
<path d="M97.4025 42.1849C97.4025 55.966 91.4554 64.6 80.7535 64.6C71.3044 64.6 66.2931 59.3773 57.0705 43.9811L52.3308 36.0415C51.078 34.1547 50.1422 32.3887 49.1308 30.7585C46.0969 35.8604 42.0214 43.2868 42.0214 43.2868C31.9082 60.8868 26.2327 64.6 18.3384 64.6C7.35273 64.6 0.798767 55.9509 0.798767 42.5773C0.798767 20.9924 12.841 0.599976 28.5573 0.599976C36.1346 0.599976 42.7158 4.32526 50.4139 14.1094C56.0139 6.54714 62.2025 0.599976 70.1271 0.599976C85.0856 0.599976 97.4025 19.5736 97.4025 42.1849ZM44.1799 23.2113C37.7044 13.8377 33.478 11.0604 28.4214 11.0604C19.078 11.0604 11.2471 27.0755 11.2471 42.7585C11.2471 50.0792 14.0365 54.1849 18.7308 54.1849C23.2893 54.1849 26.1271 51.317 34.3082 38.517C34.3082 38.517 38.0365 32.6151 44.1799 23.2113ZM80.9799 54.1849C85.8403 54.1849 88.0591 50.0339 88.0591 42.8792C88.0591 24.1321 79.8629 8.85356 69.4629 8.85356C64.4516 8.85356 60.2403 12.766 55.1384 20.6302C56.5573 22.7132 58.0214 25.0075 59.561 27.483L65.2214 36.9019C74.0818 51.1056 76.3158 54.1849 80.9799 54.1849Z" fill="#F0E8F7"/>
<path d="M118.495 12.1006L136.101 42.1543L153.675 12.1006H161.608V60.567H153.611V26.7727L139.423 50.9898H132.683L118.333 26.6437V60.567H110.433V12.1006H118.495ZM205.624 45.8626H177.248C177.807 48.6143 179.107 50.7748 181.149 52.3442C183.213 53.9135 185.718 54.6982 188.663 54.6982C190.727 54.6982 192.629 54.279 194.37 53.4405C196.133 52.5806 197.531 51.4198 198.563 49.9579L204.722 53.9242C203.238 56.2245 201.045 58.0625 198.143 59.4384C195.241 60.8142 192.081 61.5022 188.663 61.5022C185.008 61.5022 181.719 60.696 178.795 59.0837C175.872 57.4928 173.593 55.2893 171.959 52.4732C170.325 49.6355 169.508 46.4646 169.508 42.9604C169.508 39.4993 170.282 36.3607 171.83 33.5445C173.378 30.7068 175.539 28.4818 178.312 26.8695C181.106 25.2571 184.224 24.451 187.663 24.451C192.952 24.451 197.294 26.0956 200.691 29.3847C204.109 32.6523 205.818 36.8659 205.818 42.0253C205.818 43.5301 205.753 44.8092 205.624 45.8626ZM177.248 39.9615H198.111C197.961 37.3173 196.929 35.1891 195.015 33.5767C193.102 31.9429 190.673 31.126 187.728 31.126C185.062 31.126 182.783 31.9107 180.891 33.48C179.021 35.0493 177.807 37.2098 177.248 39.9615ZM237.129 52.9891L238.967 59.3416C238.021 60.0081 236.764 60.5348 235.194 60.9217C233.647 61.3087 232.067 61.5022 230.454 61.5022C221.791 61.5022 217.459 56.6437 217.459 46.9268V32.3191H209.72V25.3861H217.459V15.8734H225.424V25.3861H237.774V32.3191H225.424V46.7655C225.424 51.882 227.412 54.4402 231.389 54.4402C233.625 54.4402 235.538 53.9565 237.129 52.9891ZM272.536 25.3861H280.468V60.567H272.536V55.2463C271.353 57.2671 269.72 58.815 267.634 59.8898C265.549 60.9647 263.184 61.5022 260.54 61.5022C257.273 61.5022 254.317 60.6852 251.672 59.0514C249.028 57.4391 246.964 55.2248 245.481 52.4087C244.019 49.571 243.288 46.4216 243.288 42.9604C243.288 39.5423 244.019 36.4252 245.481 33.609C246.964 30.7713 249.028 28.5355 251.672 26.9017C254.317 25.2679 257.273 24.451 260.54 24.451C263.184 24.451 265.549 24.9992 267.634 26.0956C269.72 27.1704 271.353 28.7183 272.536 30.739V25.3861ZM269.505 51.409C271.482 49.2808 272.471 46.4646 272.471 42.9604C272.471 39.4563 271.482 36.6509 269.505 34.5441C267.527 32.4374 264.958 31.384 261.798 31.384C258.595 31.384 255.972 32.4911 253.93 34.7054C251.909 36.8981 250.899 39.6498 250.899 42.9604C250.899 46.2711 251.909 49.0335 253.93 51.2478C255.972 53.462 258.595 54.5692 261.798 54.5692C264.958 54.5692 267.527 53.5158 269.505 51.409Z" fill="#F0E8F7"/>
</svg>
