<svg width="1025" height="170" viewBox="0 0 1025 170" fill="none" xmlns="http://www.w3.org/2000/svg">
<path d="M0 42.5L34.1667 31.875C68.3333 21.25 136.667 0 205 0C273.333 0 341.667 21.25 410 21.25C478.333 21.25 546.667 0 615 10.625C683.333 21.25 751.667 63.75 820 74.375C888.333 85 956.667 63.75 990.833 53.125L1025 42.5V170H990.833C956.667 170 888.333 170 820 170C751.667 170 683.333 170 615 170C546.667 170 478.333 170 410 170C341.667 170 273.333 170 205 170C136.667 170 68.3333 170 34.1667 170H0V42.5Z" fill="url(#paint0_linear_16_104)"/>
<defs>
<linearGradient id="paint0_linear_16_104" x1="512.5" y1="0" x2="512.5" y2="170" gradientUnits="userSpaceOnUse">
<stop stop-color="#1014C2"/>
<stop offset="1" stop-color="#0B0212"/>
</linearGradient>
</defs>
</svg>
