<svg width="16" height="18" viewBox="0 0 16 18" fill="none" xmlns="http://www.w3.org/2000/svg">
<path d="M14.873 7.05484C14.4983 7.13628 13.3288 7.26659 11.713 6.26973C11.6884 6.25395 11.66 6.24508 11.6308 6.24404C11.6016 6.243 11.5727 6.24984 11.547 6.26383C11.5214 6.27782 11.4999 6.29845 11.485 6.32356C11.4701 6.34867 11.4622 6.37734 11.4621 6.40655C11.4621 6.40655 11.4621 9.66428 11.4621 10.7491C11.4621 11.6222 11.511 17.3949 5.87186 16.7498C5.87186 16.7498 1.41528 16.4241 1.41528 11.43C1.41528 11.43 1.47718 6.9343 6.76447 6.54338C6.78709 6.54159 6.80983 6.54446 6.8313 6.55181C6.85277 6.55915 6.8725 6.57081 6.88929 6.58607C6.90607 6.60133 6.91956 6.61987 6.92891 6.64054C6.93826 6.66121 6.94327 6.68358 6.94365 6.70626V8.99645C6.94476 9.0353 6.93136 9.07318 6.90607 9.10269C6.88077 9.1322 6.84539 9.15123 6.80682 9.15608C6.18786 9.24403 3.69895 9.74247 3.97586 12.0131C4.04789 12.5931 4.33411 13.1251 4.77834 13.5049C5.22257 13.8846 5.7927 14.0846 6.3768 14.0655C6.3768 14.0655 8.65721 14.3196 8.76146 11.1335V0.962889C8.76229 0.91995 8.77972 0.879002 8.81009 0.848634C8.84046 0.818266 8.88141 0.800837 8.92435 0.800003H11.1657C11.2037 0.800142 11.2404 0.813572 11.2696 0.837965C11.2987 0.862358 11.3185 0.896179 11.3253 0.93357C11.4426 1.58512 12.1137 4.13266 14.8436 4.29229C14.8851 4.29394 14.9244 4.31139 14.9535 4.34106C14.9826 4.37073 14.9992 4.41039 15 4.45192V6.89847C15.0007 6.93533 14.9883 6.97123 14.965 6.99985C14.9418 7.02846 14.9092 7.04793 14.873 7.05484Z" stroke="black" stroke-width="0.977318" stroke-linecap="round"/>
</svg>
