<svg width="1024" height="161" viewBox="0 0 1024 161" fill="none" xmlns="http://www.w3.org/2000/svg">
<path d="M0 144.92L34.1333 136.88C68.2667 128.84 136.533 112.76 204.8 99.3433C273.067 86.1275 341.333 75.0725 409.6 83.2633C477.867 91.1525 546.133 118.287 614.4 126.177C682.667 134.368 750.933 123.312 819.2 126.177C887.467 128.84 955.733 144.92 989.867 152.96L1024 161H989.867C955.733 161 887.467 161 819.2 161C750.933 161 682.667 161 614.4 161C546.133 161 477.867 161 409.6 161C341.333 161 273.067 161 204.8 161C136.533 161 68.2667 161 34.1333 161H0V144.92Z" fill="#C210AD"/>
</svg>
