<svg width="26" height="18" viewBox="0 0 26 18" fill="none" xmlns="http://www.w3.org/2000/svg">
<path d="M10.7838 12.3859V5.2141C10.7843 5.18461 10.7927 5.1558 10.8079 5.13054C10.8231 5.10528 10.8447 5.08447 10.8705 5.07018C10.8964 5.0559 10.9255 5.04864 10.9549 5.04914C10.9844 5.04964 11.0133 5.05788 11.0386 5.07303L16.6814 8.65893C16.7059 8.67341 16.7262 8.69404 16.7403 8.71878C16.7545 8.74352 16.7619 8.77151 16.7619 8.8C16.7619 8.82848 16.7545 8.85648 16.7403 8.88121C16.7262 8.90595 16.7059 8.92658 16.6814 8.94107L11.0386 12.527C11.0133 12.5421 10.9844 12.5503 10.9549 12.5508C10.9255 12.5513 10.8964 12.5441 10.8705 12.5298C10.8447 12.5155 10.8231 12.4947 10.8079 12.4695C10.7927 12.4442 10.7843 12.4154 10.7838 12.3859Z" stroke="#0B0212" stroke-width="1.36519"/>
<path d="M20.7906 0.799999H5.78717C3.51018 0.799999 1.66431 2.64587 1.66431 4.92287V12.6771C1.66431 14.9541 3.51018 16.8 5.78717 16.8H20.7906C23.0676 16.8 24.9135 14.9541 24.9135 12.6771V4.92287C24.9135 2.64587 23.0676 0.799999 20.7906 0.799999Z" stroke="#0B0212" stroke-width="1.36519"/>
</svg>
